:SAMPLES-PER-SECOND 30
:FULLY-SPECIFIED
:DEGREES
758
root  -41.3041 34.1893 -24.967 -163.935 -36.9028 -176.561
RightUpLeg  -47.971 -9.64481 12.9771
RightLeg  22.42 -0.781081 -0.26841
RightFoot  5.87324 0.0277975 -0.00318962
RightToes  -31.4707 -0.154179 -0.262057
Spine  1.58996 -4.60928 1.60782
Spine1  3.09103 -9.37118 3.87379
HEad  -73.7668 1.5765 4.45437
LeftShoulder1  -1.94126e-019 -3.10601e-018 -2.51263e-017
LeftArm  -11.0058 7.17517 -70.1337
LeftForeArm  28.1818 -50.6569 -11.5067
LeftHand  -0.561167 -0.889938 10.506
RightShoulder  -4.96962e-017 0 -2.36833e-017
RightArm  -31.7116 -34.9497 60.9595
RightForeArm  47.0259 26.292 3.156
RightHand  -0.424004 0.745308 -8.12577
LeftUpLeg  -14.2658 17.9853 0.826036
LeftLeg  35.708 -3.29293 -2.06337
LeftFoot  4.60425 0.0173259 -0.193536
LeftToes  -68.3579 1.31378e-006 1.14341e-007
759
root  -43.2086 33.7102 -26.1814 -162.6 -41.2301 -178.491
RightUpLeg  -49.0158 -9.12899 9.68457
RightLeg  17.3942 1.10802 0.269428
RightFoot  4.88727 0.0150065 0.175389
RightToes  -32.1406 -0.158936 -0.266565
Spine  1.39675 -5.67372 2.43549
Spine1  2.60747 -11.5203 5.56674
HEad  -73.4822 0.38117 4.19741
LeftShoulder1  -1.94126e-019 -3.10601e-018 -2.51263e-017
LeftArm  -6.16878 4.32532 -73.7093
LeftForeArm  28.7363 -54.3547 -13.3182
LeftHand  -0.537022 -1.45563 9.27151
RightShoulder  -4.96962e-017 0 -2.36833e-017
RightArm  -35.2403 -37.0377 56.7942
RightForeArm  45.0614 26.5354 3.29565
RightHand  -0.399132 -0.444085 -9.37167
LeftUpLeg  -11.1225 14.8463 0.111362
LeftLeg  34.959 -3.76178 -2.28778
LeftFoot  5.76145 0.0245805 -0.326979
LeftToes  -75.1514 1.31378e-006 1.14341e-007
760
root  -45.236 32.9572 -27.6682 -163.188 -45.8103 -179.358
RightUpLeg  -48.0723 -9.29173 6.86016
RightLeg  16.7132 -0.0271923 -0.00689258
RightFoot  4.6135 0.0189195 0.0643635
RightToes  -32.4994 -0.161506 -0.268957
Spine  1.26726 -6.56604 3.59755
Spine1  2.16031 -13.4092 8.00929
HEad  -71.6735 -1.63831 4.36661
LeftShoulder1  -1.94126e-019 -3.10601e-018 -2.51263e-017
LeftArm  -1.19897 1.78061 -77.8936
LeftForeArm  31.1908 -57.001 -14.6595
LeftHand  -0.515163 -2.39061 7.89631
RightShoulder  -4.96962e-017 0 -2.36833e-017
RightArm  -38.5833 -38.8858 51.872
RightForeArm  43.4754 24.3353 2.91284
RightHand  -0.395576 -1.18476 -10.8421
LeftUpLeg  -7.04098 11.6753 1.2473
LeftLeg  36.2469 -4.29783 -2.74596
LeftFoot  6.58953 0.0380303 -0.499117
LeftToes  -83.4818 1.31378e-006 1.14341e-007
761
root  -47.0245 32.0185 -29.225 -164.829 -49.4911 -178.205
RightUpLeg  -48.7435 -7.95228 5.18241
RightLeg  23.0206 -0.305564 -0.11114
RightFoot  17.8836 0.12505 -0.251518
RightToes  -12.6394 -0.0443356 -0.115172
Spine  0.552106 -7.01712 4.97529
Spine1  0.386563 -14.6537 11.1519
HEad  -69.3486 -4.45702 5.16085
LeftShoulder1  -1.94126e-019 -3.10601e-018 -2.51263e-017
LeftArm  3.4269 1.31687 -81.4173
LeftForeArm  36.0674 -60.0773 -16.3018
LeftHand  -0.491408 -3.47015 6.69159
RightShoulder  -4.96962e-017 0 -2.36833e-017
RightArm  -41.6265 -40.852 46.84
RightForeArm  42.3666 21.5148 2.40758
RightHand  -0.363208 -1.8157 -11.6271
LeftUpLeg  -5.78039 11.1633 4.76899
LeftLeg  42.3358 -6.6588 -5.3058
LeftFoot  8.86898 0.119628 -1.381
LeftToes  -91.4494 1.31378e-006 1.14341e-007
762
root  -48.5799 31.1761 -30.5004 -166.671 -50.5835 -177.435
RightUpLeg  -54.3251 -4.598 2.65086
RightLeg  43.3907 -3.86471 -3.23366
RightFoot  6.7183 0.0798452 -0.784408
RightToes  -13.2348 -0.047041 -0.120331
Spine  0.73161 -6.81325 5.90148
Spine1  0.36779 -14.5556 13.2072
HEad  -70.1697 -6.11476 6.35128
LeftShoulder1  -1.94126e-019 -3.10601e-018 -2.51263e-017
LeftArm  4.99571 1.76226 -83.6949
LeftForeArm  40.5516 -63.3709 -18.5652
LeftHand  -0.513439 -4.18591 6.50099
RightShoulder  -4.96962e-017 0 -2.36833e-017
RightArm  -47.3817 -39.5994 43.9984
RightForeArm  43.338 17.9264 1.69943
RightHand  -0.337771 -2.35677 -12.6591
LeftUpLeg  -6.86852 9.87643 7.11781
LeftLeg  52.3332 -8.30316 -9.32875
LeftFoot  14.7778 0.470414 -3.46483
LeftToes  -86.1291 1.31378e-006 1.14341e-007
763
root  -49.9649 30.6694 -31.6424 -169.588 -49.2399 -175.023
RightUpLeg  -54.1073 -5.71921 4.85073
RightLeg  50.3808 -1.68032 -1.83161
RightFoot  0.55653 0.00487281 -0.295475
RightToes  -10.8076 -0.0363508 -0.0991271
Spine  1.8415 -6.39916 6.73846
Spine1  2.24449 -14.0582 14.9025
HEad  -72.3612 -6.13132 8.38127
LeftShoulder1  -1.94126e-019 -3.10601e-018 -2.51263e-017
LeftArm  3.97697 3.14807 -84.4104
LeftForeArm  40.5302 -65.5759 -20.8547
LeftHand  -0.694687 -3.68119 9.14422
RightShoulder  -4.96962e-017 0 -2.36833e-017
RightArm  -60.1918 -32.9048 43.4347
RightForeArm  50.7841 11.4342 1.54991
RightHand  -0.187864 -4.06972 -15.528
LeftUpLeg  -10.5663 9.35564 9.14471
LeftLeg  64.1606 -6.55234 -11.4082
LeftFoot  23.9842 1.28094 -5.86365
LeftToes  -64.2692 1.31378e-006 1.14341e-007
764
root  -51.3248 30.5302 -32.4916 -170.377 -48.8708 -175.042
RightUpLeg  -51.8138 -7.32816 4.66374
RightLeg  52.9923 -0.416575 -0.543305
RightFoot  -4.0781 -0.0238774 -0.143501
RightToes  -13.1021 -0.0464333 -0.119183
Spine  2.64351 -5.70096 6.85938
Spine1  3.90122 -12.6396 14.9424
HEad  -72.8314 -7.75142 9.97539
LeftShoulder1  -1.94126e-019 -3.10601e-018 -2.51263e-017
LeftArm  3.43708 4.26403 -85.285
LeftForeArm  36.5694 -63.0803 -18.724
LeftHand  -0.823003 -2.7924 11.8871
RightShoulder  -4.96962e-017 0 -2.36833e-017
RightArm  -71.4784 -27.9828 44.8125
RightForeArm  54.5782 6.46996 1.1281
RightHand  0.407652 -7.97085 -18.945
LeftUpLeg  -16.1507 9.30945 8.40896
LeftLeg  73.4172 -2.10969 -5.71684
LeftFoot  30.5495 0.996516 -3.48634
LeftToes  -36.646 1.31378e-006 1.14341e-007
765
root  -52.4865 30.7822 -33.0725 -169.889 -46.1267 -175.007
RightUpLeg  -50.4266 -5.95524 3.91335
RightLeg  53.3287 0.538808 0.573891
RightFoot  -4.9994 -0.0326806 -0.224568
RightToes  -14.3773 -0.0523815 -0.13015
Spine  3.26709 -4.00562 6.72528
Spine1  5.4641 -9.178 14.3955
HEad  -72.9812 -10.1062 10.7374
LeftShoulder1  -1.94126e-019 -3.10601e-018 -2.51263e-017
LeftArm  1.88612 5.55025 -85.7265
LeftForeArm  33.3054 -58.378 -15.2983
LeftHand  -0.725498 -2.28892 11.1649
RightShoulder  -4.96962e-017 0 -2.36833e-017
RightArm  -71.3326 -23.8022 48.377
RightForeArm  51.4163 6.06196 1.07238
RightHand  0.68693 -10.0751 -17.466
LeftUpLeg  -22.9674 12.6343 6.68259
LeftLeg  79.7282 0.598817 2.37457
LeftFoot  24.7995 -0.121312 0.713279
LeftToes  -40.4002 1.31378e-006 1.14341e-007
766
root  -53.6177 31.2923 -33.4746 -168.427 -42.8793 -176.187
RightUpLeg  -48.059 -5.23656 2.37358
RightLeg  50.8351 2.22548 2.34617
RightFoot  -4.87153 -0.0379462 -0.378484
RightToes  -16.5476 -0.0630606 -0.148501
Spine  3.96038 -2.40445 6.06938
Spine1  7.26451 -5.78757 12.7699
HEad  -73.6083 -11.8283 10.602
LeftShoulder1  -1.94126e-019 -3.10601e-018 -2.51263e-017
LeftArm  -0.751538 7.15306 -84.9364
LeftForeArm  29.0744 -52.7462 -12.389
LeftHand  -0.596785 -1.75244 9.87829
RightShoulder  -4.96962e-017 0 -2.36833e-017
RightArm  -62.4642 -19.8993 53.2542
RightForeArm  52.5206 9.85641 1.54614
RightHand  0.01186 -5.74584 -10.6025
LeftUpLeg  -30.3134 15.6214 3.76892
LeftLeg  82.2718 0.98424 4.82329
LeftFoot  14.6593 -0.113437 1.0434
LeftToes  -35.2936 1.31378e-006 1.14341e-007
767
root  -54.7547 31.9161 -33.7239 -165.67 -40.5906 -178.109
RightUpLeg  -46.4424 -5.15438 -0.0251339
RightLeg  47.6153 3.74073 3.55569
RightFoot  -3.86411 -0.0294932 -0.366151
RightToes  -19.291 -0.0775417 -0.171097
Spine  4.23909 -1.30443 5.18227
Spine1  8.20566 -3.20543 10.6697
HEad  -74.6165 -12.541 9.79662
LeftShoulder1  -1.94126e-019 -3.10601e-018 -2.51263e-017
LeftArm  -3.41008 9.2144 -83.4876
LeftForeArm  26.1249 -47.0611 -10.1053
LeftHand  -0.619362 -1.51363 10.5804
RightShoulder  -4.96962e-017 0 -2.36833e-017
RightArm  -45.041 -16.7029 57.5611
RightForeArm  49.4422 15.7807 1.2275
RightHand  -0.377482 -0.530008 -9.01011
LeftUpLeg  -38.6498 15.9981 0.178527
LeftLeg  80.9396 1.28581 5.62988
LeftFoot  7.81438 -0.0399251 0.746081
LeftToes  -28.3204 1.31378e-006 1.14341e-007
768
root  -55.941 32.5222 -33.9839 -163.801 -39.1145 -179.361
RightUpLeg  -44.738 -5.15483 -2.23127
RightLeg  44.9474 4.73806 4.11163
RightFoot  -1.99928 -0.0115902 -0.149719
RightToes  -22.7647 -0.0974008 -0.198671
Spine  4.41309 -0.540711 4.35878
Spine1  8.76444 -1.33977 8.87614
HEad  -75.6374 -13.4139 8.99125
LeftShoulder1  -1.94126e-019 -3.10601e-018 -2.51263e-017
LeftArm  -5.15344 11.329 -81.7126
LeftForeArm  25.2978 -42.0702 -8.38603
LeftHand  -0.61919 -1.11191 11.1989
RightShoulder  -4.96962e-017 0 -2.36833e-017
RightArm  -33.4189 -14.7212 60.2912
RightForeArm  49.4256 22.4336 2.26902
RightHand  -0.592923 0.197418 -12.3748
LeftUpLeg  -45.2138 14.47 -1.73921
LeftLeg  75.7733 2.76205 8.45543
LeftFoot  3.58985 -0.0154142 0.653413
LeftToes  -22.8633 1.31378e-006 1.14341e-007
